#define max_toggled_width 10
#define max_toggled_height 10
static unsigned char max_toggled_bits[] = {
   0xfc, 0x03, 0xfc, 0x03, 0x00, 0x03, 0x7f, 0x03, 0x7f, 0x03,
   0x63, 0x03, 0x63, 0x03, 0x63, 0x03, 0x7f, 0x00, 0x7f, 0x00 };
